<svg width="231" height="213" viewBox="0 0 231 213" fill="none" xmlns="http://www.w3.org/2000/svg">
<rect width="231" height="213" rx="5" fill="#D9D9D9"/>
<path d="M94.57 116.162C93.73 116.162 92.992 116.054 92.356 115.838C91.732 115.61 91.204 115.28 90.772 114.848C90.34 114.404 90.016 113.858 89.8 113.21C89.584 112.562 89.476 111.818 89.476 110.978V103.94C89.476 103.688 89.536 103.502 89.656 103.382C89.788 103.25 89.974 103.184 90.214 103.184C90.454 103.184 90.634 103.25 90.754 103.382C90.886 103.502 90.952 103.688 90.952 103.94V110.906C90.952 112.226 91.258 113.216 91.87 113.876C92.482 114.524 93.382 114.848 94.57 114.848C95.758 114.848 96.652 114.524 97.252 113.876C97.852 113.216 98.152 112.226 98.152 110.906V103.94C98.152 103.688 98.218 103.502 98.35 103.382C98.482 103.25 98.668 103.184 98.908 103.184C99.136 103.184 99.31 103.25 99.43 103.382C99.562 103.502 99.628 103.688 99.628 103.94V110.978C99.628 112.094 99.436 113.042 99.052 113.822C98.68 114.602 98.116 115.19 97.36 115.586C96.604 115.97 95.674 116.162 94.57 116.162ZM103.184 119.366C102.944 119.366 102.764 119.3 102.644 119.168C102.524 119.048 102.464 118.868 102.464 118.628V107.864C102.464 107.624 102.524 107.444 102.644 107.324C102.764 107.192 102.938 107.126 103.166 107.126C103.406 107.126 103.586 107.192 103.706 107.324C103.838 107.444 103.904 107.624 103.904 107.864V109.574L103.706 109.322C103.898 108.638 104.276 108.098 104.84 107.702C105.416 107.294 106.1 107.09 106.892 107.09C107.672 107.09 108.35 107.276 108.926 107.648C109.514 108.008 109.964 108.53 110.276 109.214C110.6 109.886 110.762 110.69 110.762 111.626C110.762 112.55 110.6 113.354 110.276 114.038C109.964 114.71 109.52 115.232 108.944 115.604C108.368 115.976 107.684 116.162 106.892 116.162C106.1 116.162 105.422 115.964 104.858 115.568C104.294 115.16 103.91 114.62 103.706 113.948H103.922V118.628C103.922 118.868 103.856 119.048 103.724 119.168C103.592 119.3 103.412 119.366 103.184 119.366ZM106.586 114.992C107.138 114.992 107.612 114.86 108.008 114.596C108.416 114.332 108.728 113.948 108.944 113.444C109.172 112.94 109.286 112.334 109.286 111.626C109.286 110.534 109.04 109.7 108.548 109.124C108.068 108.548 107.414 108.26 106.586 108.26C106.046 108.26 105.572 108.392 105.164 108.656C104.756 108.908 104.438 109.286 104.21 109.79C103.994 110.282 103.886 110.894 103.886 111.626C103.886 112.706 104.132 113.54 104.624 114.128C105.116 114.704 105.77 114.992 106.586 114.992ZM115.622 116.162C114.758 116.162 114.098 115.898 113.642 115.37C113.186 114.842 112.958 114.086 112.958 113.102V103.922C112.958 103.682 113.018 103.502 113.138 103.382C113.258 103.25 113.438 103.184 113.678 103.184C113.906 103.184 114.086 103.25 114.218 103.382C114.35 103.502 114.416 103.682 114.416 103.922V112.994C114.416 113.642 114.542 114.128 114.794 114.452C115.058 114.764 115.442 114.92 115.946 114.92C116.054 114.92 116.15 114.914 116.234 114.902C116.318 114.89 116.402 114.884 116.486 114.884C116.618 114.872 116.708 114.902 116.756 114.974C116.816 115.046 116.846 115.19 116.846 115.406C116.846 115.622 116.798 115.784 116.702 115.892C116.606 116 116.45 116.072 116.234 116.108C116.138 116.12 116.036 116.132 115.928 116.144C115.82 116.156 115.718 116.162 115.622 116.162ZM121.832 116.162C120.98 116.162 120.242 115.976 119.618 115.604C118.994 115.232 118.508 114.71 118.16 114.038C117.824 113.354 117.656 112.55 117.656 111.626C117.656 110.93 117.752 110.306 117.944 109.754C118.136 109.19 118.418 108.71 118.79 108.314C119.162 107.918 119.6 107.618 120.104 107.414C120.62 107.198 121.196 107.09 121.832 107.09C122.684 107.09 123.422 107.276 124.046 107.648C124.67 108.02 125.15 108.548 125.486 109.232C125.834 109.904 126.008 110.702 126.008 111.626C126.008 112.322 125.912 112.946 125.72 113.498C125.528 114.05 125.246 114.53 124.874 114.938C124.502 115.334 124.058 115.64 123.542 115.856C123.038 116.06 122.468 116.162 121.832 116.162ZM121.832 114.992C122.372 114.992 122.846 114.86 123.254 114.596C123.662 114.332 123.974 113.948 124.19 113.444C124.418 112.94 124.532 112.334 124.532 111.626C124.532 110.534 124.286 109.7 123.794 109.124C123.314 108.548 122.66 108.26 121.832 108.26C121.28 108.26 120.8 108.392 120.392 108.656C119.996 108.908 119.684 109.286 119.456 109.79C119.24 110.282 119.132 110.894 119.132 111.626C119.132 112.706 119.378 113.54 119.87 114.128C120.362 114.704 121.016 114.992 121.832 114.992ZM130.952 116.162C130.352 116.162 129.812 116.048 129.332 115.82C128.864 115.58 128.492 115.256 128.216 114.848C127.94 114.44 127.802 113.984 127.802 113.48C127.802 112.832 127.964 112.322 128.288 111.95C128.624 111.578 129.17 111.314 129.926 111.158C130.694 111.002 131.738 110.924 133.058 110.924H133.868V111.878H133.076C132.104 111.878 131.336 111.926 130.772 112.022C130.22 112.106 129.83 112.256 129.602 112.472C129.386 112.688 129.278 112.994 129.278 113.39C129.278 113.882 129.446 114.284 129.782 114.596C130.13 114.908 130.598 115.064 131.186 115.064C131.666 115.064 132.086 114.95 132.446 114.722C132.818 114.494 133.106 114.182 133.31 113.786C133.526 113.39 133.634 112.934 133.634 112.418V110.366C133.634 109.622 133.484 109.088 133.184 108.764C132.884 108.428 132.392 108.26 131.708 108.26C131.288 108.26 130.868 108.314 130.448 108.422C130.028 108.53 129.584 108.704 129.116 108.944C128.948 109.028 128.804 109.058 128.684 109.034C128.564 108.998 128.468 108.932 128.396 108.836C128.324 108.74 128.282 108.632 128.27 108.512C128.258 108.38 128.282 108.254 128.342 108.134C128.414 108.014 128.522 107.918 128.666 107.846C129.194 107.582 129.716 107.39 130.232 107.27C130.748 107.15 131.24 107.09 131.708 107.09C132.464 107.09 133.088 107.216 133.58 107.468C134.072 107.708 134.438 108.08 134.678 108.584C134.918 109.076 135.038 109.712 135.038 110.492V115.37C135.038 115.61 134.978 115.796 134.858 115.928C134.75 116.06 134.588 116.126 134.372 116.126C134.144 116.126 133.97 116.06 133.85 115.928C133.73 115.796 133.67 115.61 133.67 115.37V113.966H133.832C133.736 114.422 133.55 114.812 133.274 115.136C133.01 115.46 132.68 115.712 132.284 115.892C131.888 116.072 131.444 116.162 130.952 116.162ZM141.073 116.162C140.293 116.162 139.609 115.976 139.021 115.604C138.445 115.232 137.995 114.71 137.671 114.038C137.359 113.354 137.203 112.55 137.203 111.626C137.203 110.69 137.359 109.886 137.671 109.214C137.995 108.53 138.445 108.008 139.021 107.648C139.609 107.276 140.293 107.09 141.073 107.09C141.865 107.09 142.543 107.288 143.107 107.684C143.671 108.08 144.049 108.614 144.241 109.286H144.043V103.922C144.043 103.682 144.103 103.502 144.223 103.382C144.355 103.25 144.541 103.184 144.781 103.184C145.009 103.184 145.183 103.25 145.303 103.382C145.435 103.502 145.501 103.682 145.501 103.922V115.37C145.501 115.61 145.441 115.796 145.321 115.928C145.201 116.06 145.021 116.126 144.781 116.126C144.553 116.126 144.373 116.06 144.241 115.928C144.121 115.796 144.061 115.61 144.061 115.37V113.66L144.259 113.912C144.067 114.596 143.683 115.142 143.107 115.55C142.543 115.958 141.865 116.162 141.073 116.162ZM141.379 114.992C141.919 114.992 142.393 114.86 142.801 114.596C143.209 114.332 143.521 113.948 143.737 113.444C143.965 112.94 144.079 112.334 144.079 111.626C144.079 110.534 143.833 109.7 143.341 109.124C142.861 108.548 142.207 108.26 141.379 108.26C140.827 108.26 140.347 108.392 139.939 108.656C139.543 108.908 139.231 109.286 139.003 109.79C138.787 110.282 138.679 110.894 138.679 111.626C138.679 112.706 138.925 113.54 139.417 114.128C139.909 114.704 140.563 114.992 141.379 114.992Z" fill="black"/>
</svg>
