<svg width="24" height="24" viewBox="0 0 24 24" fill="none" xmlns="http://www.w3.org/2000/svg">
<path d="M7.32728 16.738C7.40288 16.7957 7.48893 16.8376 7.58052 16.8615C7.6721 16.8854 7.76743 16.8907 7.86105 16.8772C7.95467 16.8637 8.04475 16.8316 8.12615 16.7828C8.20755 16.734 8.27867 16.6693 8.33546 16.5926C8.77146 16.0026 9.3368 15.5237 9.98671 15.1939C10.6366 14.8641 11.3533 14.6924 12.0799 14.6924C12.8065 14.6924 13.5232 14.864 14.1731 15.1938C14.8231 15.5236 15.3884 16.0024 15.8245 16.5924C15.881 16.6699 15.952 16.7352 16.0335 16.7847C16.115 16.8342 16.2054 16.8668 16.2994 16.8807C16.3934 16.8946 16.4891 16.8895 16.5812 16.8657C16.6732 16.8418 16.7597 16.7997 16.8356 16.7418C16.9115 16.6839 16.9754 16.6114 17.0236 16.5283C17.0718 16.4452 17.1033 16.3533 17.1163 16.2578C17.1294 16.1623 17.1236 16.0652 17.0995 15.9719C17.0754 15.8787 17.0333 15.7912 16.9757 15.7146C16.3377 14.8468 15.4866 14.164 14.5074 13.7342C15.0435 13.2374 15.4191 12.5877 15.5849 11.8703C15.7507 11.153 15.6989 10.4016 15.4364 9.71463C15.1739 9.02768 14.7129 8.43734 14.1139 8.02107C13.5149 7.60479 12.8059 7.38204 12.08 7.38204C11.3541 7.38204 10.6451 7.60479 10.0461 8.02107C9.44711 8.43734 8.98612 9.02768 8.72361 9.71463C8.4611 10.4016 8.40935 11.153 8.57514 11.8703C8.74093 12.5877 9.11652 13.2374 9.65261 13.7342C8.67334 14.164 7.82221 14.8469 7.18409 15.7147C7.12729 15.7915 7.08593 15.8788 7.06239 15.9718C7.03884 16.0647 7.03357 16.1615 7.04687 16.2565C7.06016 16.3515 7.09177 16.4429 7.13988 16.5255C7.188 16.6082 7.25168 16.6804 7.32728 16.738ZM9.92 11.0385C9.92 10.6049 10.0467 10.181 10.284 9.82048C10.5214 9.45996 10.8587 9.17896 11.2534 9.01303C11.6481 8.8471 12.0824 8.80369 12.5014 8.88828C12.9204 8.97287 13.3053 9.18167 13.6074 9.48827C13.9094 9.79487 14.1152 10.1855 14.1985 10.6108C14.2818 11.036 14.2391 11.4768 14.0756 11.8774C13.9121 12.278 13.6352 12.6204 13.28 12.8613C12.9248 13.1022 12.5072 13.2308 12.08 13.2308C11.5073 13.2301 10.9583 12.9989 10.5534 12.5879C10.1484 12.1769 9.92064 11.6197 9.92 11.0385ZM18.56 3H5.6C5.21822 3.00044 4.8522 3.15456 4.58224 3.42856C4.31228 3.70255 4.16043 4.07405 4.16 4.46154V6.28846H2.72C2.52904 6.28846 2.34591 6.36545 2.21088 6.5025C2.07586 6.63954 2 6.82542 2 7.01923C2 7.21304 2.07586 7.39892 2.21088 7.53596C2.34591 7.67301 2.52904 7.75 2.72 7.75H4.16V9.94231H2.72C2.52904 9.94231 2.34591 10.0193 2.21088 10.1563C2.07586 10.2934 2 10.4793 2 10.6731C2 10.8669 2.07586 11.0528 2.21088 11.1898C2.34591 11.3269 2.52904 11.4038 2.72 11.4038H4.16V13.5962H2.72C2.52904 13.5962 2.34591 13.6731 2.21088 13.8102C2.07586 13.9472 2 14.1331 2 14.3269C2 14.5207 2.07586 14.7066 2.21088 14.8437C2.34591 14.9807 2.52904 15.0577 2.72 15.0577H4.16V17.25H2.72C2.52904 17.25 2.34591 17.327 2.21088 17.464C2.07586 17.6011 2 17.787 2 17.9808C2 18.1746 2.07586 18.3605 2.21088 18.4975C2.34591 18.6345 2.52904 18.7115 2.72 18.7115H4.16V20.5385C4.16043 20.926 4.31228 21.2974 4.58224 21.5714C4.8522 21.8454 5.21822 21.9996 5.6 22H18.56C18.9418 21.9996 19.3078 21.8454 19.5778 21.5714C19.8477 21.2974 19.9996 20.926 20 20.5385V4.46154C19.9996 4.07405 19.8477 3.70255 19.5778 3.42856C19.3078 3.15456 18.9418 3.00044 18.56 3ZM18.56 20.5385L5.6 20.5394V4.46154H18.56V20.5385Z" fill="#007FFF"/>
</svg>
