<svg width="56" height="56" viewBox="0 0 56 56" fill="none" xmlns="http://www.w3.org/2000/svg">
<path d="M42.625 29.6876H15.625V17.0314C15.6237 16.5547 15.7169 16.0826 15.8993 15.6423C16.0817 15.2019 16.3497 14.8021 16.6876 14.466L16.7158 14.4379C17.2454 13.909 17.9254 13.5566 18.6629 13.4287C19.4003 13.3008 20.1593 13.4037 20.8361 13.7234C20.1969 14.7861 19.9312 16.0319 20.0813 17.2629C20.2313 18.4939 20.7885 19.6394 21.6642 20.5175L22.4342 21.2875L21.0169 22.7048L22.6078 24.2957L24.0251 22.8784L31.8782 15.0254L33.2955 13.6081L31.7046 12.0172L30.2872 13.4345L29.5172 12.6645C28.5953 11.7452 27.3801 11.1785 26.0833 11.0631C24.7865 10.9478 23.4903 11.2911 22.4206 12.0333C21.2927 11.321 19.956 11.0135 18.6302 11.1613C17.3044 11.3091 16.0682 11.9035 15.1249 12.8467L15.0967 12.8748C14.5492 13.4194 14.1151 14.0672 13.8195 14.7806C13.524 15.4941 13.3729 16.2591 13.375 17.0314V29.6876H11.125V31.9376H13.375V34.0962C13.375 34.2776 13.4042 34.4578 13.4616 34.6298L15.5547 40.9087C15.6664 41.2449 15.8812 41.5373 16.1685 41.7444C16.4559 41.9516 16.8012 42.0629 17.1554 42.0626H18.0625L17.2422 44.8751H19.5859L20.4062 42.0626H35.0383L35.882 44.8751H38.2305L37.3867 42.0626H38.8443C39.1986 42.063 39.544 41.9517 39.8314 41.7445C40.1188 41.5374 40.3336 41.2449 40.4453 40.9087L42.5382 34.6298C42.5957 34.4578 42.625 34.2776 42.625 34.0962V31.9376H44.875V29.6876H42.625ZM23.2553 14.2554C23.8752 13.6369 24.7151 13.2895 25.5908 13.2895C26.4665 13.2895 27.3064 13.6369 27.9262 14.2554L28.6961 15.0254L24.0253 19.6962L23.2553 18.9264C22.6368 18.3065 22.2895 17.4666 22.2895 16.5909C22.2895 15.7152 22.6368 14.8753 23.2553 14.2554ZM40.375 34.0048L38.4392 39.8126H17.5608L15.625 34.0048V31.9376H40.375V34.0048Z" fill="black"/>
</svg>
