<svg width="56" height="56" viewBox="0 0 56 56" fill="none" xmlns="http://www.w3.org/2000/svg">
<g clip-path="url(#clip0_1_3777)">
<path d="M20.125 21.25C20.4234 21.25 20.7095 21.1315 20.9205 20.9205C21.1315 20.7095 21.25 20.4234 21.25 20.125C21.25 19.8266 21.1315 19.5405 20.9205 19.3295C20.7095 19.1185 20.4234 19 20.125 19C19.8266 19 19.5405 19.1185 19.3295 19.3295C19.1185 19.5405 19 19.8266 19 20.125C19 20.4234 19.1185 20.7095 19.3295 20.9205C19.5405 21.1315 19.8266 21.25 20.125 21.25ZM16.75 20.125C16.75 20.4234 16.6315 20.7095 16.4205 20.9205C16.2095 21.1315 15.9234 21.25 15.625 21.25C15.3266 21.25 15.0405 21.1315 14.8295 20.9205C14.6185 20.7095 14.5 20.4234 14.5 20.125C14.5 19.8266 14.6185 19.5405 14.8295 19.3295C15.0405 19.1185 15.3266 19 15.625 19C15.9234 19 16.2095 19.1185 16.4205 19.3295C16.6315 19.5405 16.75 19.8266 16.75 20.125ZM21.25 35.875C21.25 36.1734 21.1315 36.4595 20.9205 36.6705C20.7095 36.8815 20.4234 37 20.125 37C19.8266 37 19.5405 36.8815 19.3295 36.6705C19.1185 36.4595 19 36.1734 19 35.875C19 35.5766 19.1185 35.2905 19.3295 35.0795C19.5405 34.8685 19.8266 34.75 20.125 34.75C20.4234 34.75 20.7095 34.8685 20.9205 35.0795C21.1315 35.2905 21.25 35.5766 21.25 35.875ZM15.625 37C15.9234 37 16.2095 36.8815 16.4205 36.6705C16.6315 36.4595 16.75 36.1734 16.75 35.875C16.75 35.5766 16.6315 35.2905 16.4205 35.0795C16.2095 34.8685 15.9234 34.75 15.625 34.75C15.3266 34.75 15.0405 34.8685 14.8295 35.0795C14.6185 35.2905 14.5 35.5766 14.5 35.875C14.5 36.1734 14.6185 36.4595 14.8295 36.6705C15.0405 36.8815 15.3266 37 15.625 37Z" fill="black"/>
<path d="M14.5 14.5C13.3065 14.5 12.1619 14.9741 11.318 15.818C10.4741 16.6619 10 17.8065 10 19V21.25C10 22.4435 10.4741 23.5881 11.318 24.432C12.1619 25.2759 13.3065 25.75 14.5 25.75H16.75V30.25H14.5C13.3065 30.25 12.1619 30.7241 11.318 31.568C10.4741 32.4119 10 33.5565 10 34.75V37C10 38.1935 10.4741 39.3381 11.318 40.182C12.1619 41.0259 13.3065 41.5 14.5 41.5H41.5C42.6935 41.5 43.8381 41.0259 44.682 40.182C45.5259 39.3381 46 38.1935 46 37V34.75C46 33.5565 45.5259 32.4119 44.682 31.568C43.8381 30.7241 42.6935 30.25 41.5 30.25H39.25V25.75H41.5C42.6935 25.75 43.8381 25.2759 44.682 24.432C45.5259 23.5881 46 22.4435 46 21.25V19C46 17.8065 45.5259 16.6619 44.682 15.818C43.8381 14.9741 42.6935 14.5 41.5 14.5H14.5ZM43.75 19V21.25C43.75 21.8467 43.5129 22.419 43.091 22.841C42.669 23.2629 42.0967 23.5 41.5 23.5H14.5C13.9033 23.5 13.331 23.2629 12.909 22.841C12.4871 22.419 12.25 21.8467 12.25 21.25V19C12.25 18.4033 12.4871 17.831 12.909 17.409C13.331 16.9871 13.9033 16.75 14.5 16.75H41.5C42.0967 16.75 42.669 16.9871 43.091 17.409C43.5129 17.831 43.75 18.4033 43.75 19ZM43.75 34.75V37C43.75 37.5967 43.5129 38.169 43.091 38.591C42.669 39.0129 42.0967 39.25 41.5 39.25H14.5C13.9033 39.25 13.331 39.0129 12.909 38.591C12.4871 38.169 12.25 37.5967 12.25 37V34.75C12.25 34.1533 12.4871 33.581 12.909 33.159C13.331 32.7371 13.9033 32.5 14.5 32.5H41.5C42.0967 32.5 42.669 32.7371 43.091 33.159C43.5129 33.581 43.75 34.1533 43.75 34.75ZM37 25.75V30.25H19V25.75H37Z" fill="black"/>
</g>
<defs>
<clipPath id="clip0_1_3777">
<rect width="36" height="36" fill="white" transform="translate(10 10)"/>
</clipPath>
</defs>
</svg>
