<svg width="46" height="46" viewBox="0 0 46 46" fill="none" xmlns="http://www.w3.org/2000/svg">
<path fill-rule="evenodd" clip-rule="evenodd" d="M19.4301 21.2969L5.1557 3.31405C5.07369 3.21075 5.02287 3.09764 5.00612 2.98118C4.98938 2.86473 5.00705 2.7472 5.05812 2.63532C5.16126 2.40936 5.3942 2.2201 5.70569 2.10917C6.01717 1.99824 6.38169 1.97473 6.71906 2.04381C6.8861 2.07802 7.04146 2.13393 7.17624 2.20835C7.31103 2.28276 7.42261 2.37424 7.50462 2.47754L21.7804 20.4604L23.8047 19.7388C24.4217 19.5191 25.0973 19.3829 25.7929 19.3381C26.4884 19.2933 27.1904 19.3407 27.8586 19.4776C28.5268 19.6145 29.1482 19.8383 29.6873 20.1361C30.2264 20.4338 30.6726 20.7998 31.0005 21.2131L31.8624 22.2991L41 31.2558L29.3778 35.3938L25.3516 30.0638L22.9788 30.8682L27.0288 36.2312L22.0464 38.0049L16.0677 27.9222L15.2071 26.8371C14.879 26.4239 14.6757 25.9715 14.6087 25.5056C14.5417 25.0398 14.6124 24.5697 14.8167 24.1222C15.021 23.6746 15.3549 23.2584 15.7993 22.8973C16.2438 22.5362 16.7901 22.2373 17.4071 22.0176L19.4301 21.2969ZM25.0524 21.3129L18.6547 23.5908C18.3462 23.7007 18.073 23.8501 17.8508 24.0307C17.6286 24.2112 17.4616 24.4193 17.3595 24.6431C17.2573 24.8669 17.222 25.1019 17.2555 25.3349C17.289 25.5678 17.3907 25.794 17.5547 26.0006L18.4153 27.0857L29.5121 23.1338L28.6502 22.0496C28.4862 21.843 28.2631 21.6601 27.9935 21.5112C27.7239 21.3624 27.4132 21.2506 27.0791 21.1822C26.745 21.1137 26.3941 21.0901 26.0463 21.1125C25.6986 21.1349 25.3608 21.203 25.0524 21.3129Z" fill="black"/>
<path d="M26.48 38.2746C26.3233 38.122 26.0983 38.0261 25.8544 38.008C25.6106 37.9899 25.3678 38.051 25.1796 38.178H25.1814L25.1713 38.184L25.1131 38.2199C25.0304 38.2703 24.946 38.3187 24.86 38.3652C24.631 38.4887 24.2892 38.6572 23.8496 38.8264C22.7196 39.2667 21.483 39.4977 20.2292 39.5025C19.9843 39.5025 19.7494 39.5814 19.5762 39.7218C19.403 39.8622 19.3057 40.0527 19.3057 40.2513C19.3057 40.4498 19.403 40.6403 19.5762 40.7807C19.7494 40.9211 19.9843 41 20.2292 41C22.0634 41 23.5846 40.5874 24.6439 40.1786C25.0738 40.0136 25.4886 39.8239 25.8852 39.6111C26.0337 39.5306 26.1785 39.4456 26.3193 39.3565L26.347 39.3393L26.3562 39.3333L26.359 39.3303H26.3608L26.3617 39.3288C26.5498 39.2017 26.6679 39.0192 26.6901 38.8215C26.7122 38.6238 26.6367 38.4271 26.48 38.2746Z" fill="black"/>
<path d="M26.5391 41.3333C26.6064 41.4151 26.6532 41.5069 26.6768 41.6033C26.7004 41.6998 26.7003 41.7991 26.6765 41.8955C26.6527 41.992 26.6058 42.0837 26.5383 42.1654C26.4708 42.2471 26.3842 42.3173 26.2832 42.3718L26.2814 42.3733L26.2777 42.3748L26.2685 42.3793L26.2398 42.3943C26.0799 42.4768 25.9176 42.5561 25.7531 42.6324C25.4289 42.7829 24.9681 42.9828 24.4139 43.182C23.3241 43.5751 21.8002 43.9951 20.2292 43.9951C19.9843 43.9951 19.7494 43.9162 19.5762 43.7758C19.403 43.6354 19.3057 43.4449 19.3057 43.2464C19.3057 43.0478 19.403 42.8573 19.5762 42.7169C19.7494 42.5765 19.9843 42.4976 20.2292 42.4976C21.428 42.4976 22.6767 42.1689 23.664 41.8133C24.1784 41.6272 24.6775 41.4146 25.1583 41.1768C25.1943 41.1596 25.2211 41.1454 25.2378 41.1364L25.2562 41.1274L25.2581 41.1259C25.359 41.0713 25.4722 41.0334 25.5911 41.0143C25.7101 40.9952 25.8326 40.9952 25.9516 41.0145C26.0705 41.0338 26.1836 41.0718 26.2844 41.1265C26.3852 41.1812 26.4718 41.2515 26.5391 41.3333Z" fill="black"/>
</svg>
