<svg width="46" height="49" viewBox="0 0 46 49" fill="none" xmlns="http://www.w3.org/2000/svg">
<path d="M7.26889 18.9866V18.9617C7.26886 16.5 7.9591 14.0935 9.25255 12.0457C10.546 9.99789 12.3847 8.40061 14.5366 7.45534C16.6886 6.51008 19.0574 6.25919 21.3442 6.73433C23.631 7.20946 25.7334 8.38934 27.386 10.1251C28.6863 9.44722 30.1387 9.1622 31.5828 9.30154C33.0268 9.44088 34.4063 9.99915 35.5688 10.9147C36.7313 11.8302 37.6315 13.0673 38.1701 14.4893C38.7086 15.9114 38.8645 17.463 38.6205 18.9727C38.9792 19.0079 39.3273 19.1208 39.6429 19.3044C39.9585 19.4879 40.2349 19.7382 40.4548 20.0397C40.6748 20.3411 40.8335 20.6872 40.9212 21.0563C41.0089 21.4254 41.0236 21.8096 40.9644 22.185C39.7793 29.7145 36.8481 34.4803 32.1761 36.4853V38.3462C32.1761 39.4478 31.7617 40.5044 31.0242 41.2834C30.2867 42.0624 29.2864 42.5 28.2434 42.5H17.7561C16.7131 42.5 15.7128 42.0624 14.9753 41.2834C14.2377 40.5044 13.8234 39.4478 13.8234 38.3462V36.4853C9.15135 34.4803 6.22017 29.7145 5.03511 22.185C4.97791 21.8196 4.9907 21.4458 5.07272 21.0857C5.15473 20.7256 5.3043 20.3865 5.51258 20.0886C5.72085 19.7906 5.98361 19.5398 6.28528 19.351C6.58695 19.1622 6.92142 19.0392 7.26889 18.9894V18.9866ZM9.8907 18.9617H12.5125C12.5125 17.1256 13.2031 15.3647 14.4323 14.0663C15.6615 12.768 17.3287 12.0386 19.067 12.0386C20.8054 12.0386 22.4726 12.768 23.7018 14.0663C24.931 15.3647 25.6216 17.1256 25.6216 18.9617H28.2434C28.2434 16.3911 27.2766 13.9258 25.5557 12.1082C23.8348 10.2905 21.5007 9.2694 19.067 9.2694C16.6333 9.2694 14.2993 10.2905 12.5784 12.1082C10.8575 13.9258 9.8907 16.3911 9.8907 18.9617ZM15.1343 18.9617H22.9997C22.9997 17.86 22.5854 16.8035 21.8479 16.0245C21.1104 15.2455 20.1101 14.8078 19.067 14.8078C18.024 14.8078 17.0237 15.2455 16.2862 16.0245C15.5487 16.8035 15.1343 17.86 15.1343 18.9617ZM33.1357 18.9617H35.9436C36.1415 18.1433 36.16 17.288 35.9976 16.4609C35.8351 15.6339 35.4961 14.8569 35.0063 14.1892C34.5165 13.5215 33.8889 12.9807 33.1712 12.608C32.4536 12.2353 31.6649 12.0406 30.8652 12.0386C30.2359 12.0386 29.6382 12.1549 29.0823 12.3682C29.5464 13.1546 29.9292 14.002 30.2228 14.8909C30.7222 14.7601 31.2469 14.787 31.7319 14.9684C32.2169 15.1497 32.6408 15.4775 32.9511 15.911C33.2613 16.3446 33.4441 16.8648 33.4769 17.4071C33.5098 17.9494 33.3911 18.4899 33.1357 18.9617ZM29.5543 36.9616H16.4452V38.3462C16.4452 38.7134 16.5833 39.0656 16.8292 39.3252C17.075 39.5849 17.4085 39.7308 17.7561 39.7308H28.2434C28.591 39.7308 28.9245 39.5849 29.1703 39.3252C29.4162 39.0656 29.5543 38.7134 29.5543 38.3462V36.9616ZM15.5223 34.1924H30.4771C34.6353 32.7801 37.2676 28.7868 38.3793 21.7309H7.62021C8.73186 28.7868 11.3642 32.7801 15.5223 34.1924Z" fill="black"/>
</svg>
