<svg width="46" height="46" viewBox="0 0 46 46" fill="none" xmlns="http://www.w3.org/2000/svg">
<path d="M32 8.015L14 8C12.335 8 11 9.335 11 11V35C11 36.665 12.335 38 14 38H32C33.665 38 35 36.665 35 35V11C35 9.335 33.665 8.015 32 8.015ZM32 35H14L13.985 11H32V35Z" fill="black"/>
<path d="M17 15.5C17.8284 15.5 18.5 14.8284 18.5 14C18.5 13.1716 17.8284 12.5 17 12.5C16.1716 12.5 15.5 13.1716 15.5 14C15.5 14.8284 16.1716 15.5 17 15.5Z" fill="black"/>
<path d="M21.5 15.5C22.3284 15.5 23 14.8284 23 14C23 13.1716 22.3284 12.5 21.5 12.5C20.6716 12.5 20 13.1716 20 14C20 14.8284 20.6716 15.5 21.5 15.5Z" fill="black"/>
<path d="M23 33.5C27.14 33.5 30.5 30.14 30.5 26C30.5 21.86 27.14 18.5 23 18.5C18.86 18.5 15.5 21.86 15.5 26C15.5 30.14 18.86 33.5 23 33.5ZM26.54 22.46C28.49 24.41 28.49 27.59 26.54 29.54C24.59 31.49 21.41 31.49 19.46 29.54L26.54 22.46Z" fill="black"/>
</svg>
