<svg width="56" height="56" viewBox="0 0 56 56" fill="none" xmlns="http://www.w3.org/2000/svg">
<path d="M16.75 20.125C16.75 18.6332 17.3426 17.2024 18.3975 16.1475C19.4524 15.0926 20.8832 14.5 22.375 14.5H33.625C35.1168 14.5 36.5476 15.0926 37.6025 16.1475C38.6574 17.2024 39.25 18.6332 39.25 20.125V23.6125C40.5205 23.8718 41.6624 24.5622 42.4825 25.5667C43.3025 26.5713 43.7503 27.8283 43.75 29.125V40.375C43.75 40.6734 43.6315 40.9595 43.4205 41.1705C43.2095 41.3815 42.9234 41.5 42.625 41.5C42.3266 41.5 42.0405 41.3815 41.8295 41.1705C41.6185 40.9595 41.5 40.6734 41.5 40.375V34.75H14.5V40.375C14.5 40.6734 14.3815 40.9595 14.1705 41.1705C13.9595 41.3815 13.6734 41.5 13.375 41.5C13.0766 41.5 12.7905 41.3815 12.5795 41.1705C12.3685 40.9595 12.25 40.6734 12.25 40.375V29.125C12.2497 27.8283 12.6975 26.5713 13.5175 25.5667C14.3376 24.5622 15.4795 23.8718 16.75 23.6125V20.125ZM14.5 32.5H41.5V29.125C41.5 28.2299 41.1444 27.3714 40.5115 26.7385C39.8786 26.1056 39.0201 25.75 38.125 25.75H17.875C16.9799 25.75 16.1214 26.1056 15.4885 26.7385C14.8556 27.3714 14.5 28.2299 14.5 29.125V32.5ZM37 20.125C37 19.2299 36.6444 18.3714 36.0115 17.7385C35.3786 17.1056 34.5201 16.75 33.625 16.75H22.375C21.4799 16.75 20.6214 17.1056 19.9885 17.7385C19.3556 18.3714 19 19.2299 19 20.125V23.5H21.25V22.375C21.25 22.0766 21.3685 21.7905 21.5795 21.5795C21.7905 21.3685 22.0766 21.25 22.375 21.25H25.75C26.0484 21.25 26.3345 21.3685 26.5455 21.5795C26.7565 21.7905 26.875 22.0766 26.875 22.375V23.5H29.125V22.375C29.125 22.0766 29.2435 21.7905 29.4545 21.5795C29.6655 21.3685 29.9516 21.25 30.25 21.25H33.625C33.9234 21.25 34.2095 21.3685 34.4205 21.5795C34.6315 21.7905 34.75 22.0766 34.75 22.375V23.5H37V20.125Z" fill="black"/>
</svg>
