<svg width="25" height="25" viewBox="0 0 25 25" fill="none" xmlns="http://www.w3.org/2000/svg">
<path d="M7.625 11.75C7.84751 11.75 8.06501 11.816 8.25002 11.9396C8.43502 12.0632 8.57922 12.2389 8.66437 12.4445C8.74951 12.65 8.77179 12.8762 8.72838 13.0945C8.68498 13.3127 8.57783 13.5132 8.4205 13.6705C8.26316 13.8278 8.06271 13.935 7.84448 13.9784C7.62625 14.0218 7.40005 13.9995 7.19448 13.9144C6.98892 13.8292 6.81321 13.685 6.6896 13.5C6.56598 13.315 6.5 13.0975 6.5 12.875C6.5 12.5766 6.61853 12.2905 6.82951 12.0795C7.04048 11.8685 7.32663 11.75 7.625 11.75ZM7.625 10.25C7.10583 10.25 6.59831 10.404 6.16663 10.6924C5.73495 10.9808 5.3985 11.3908 5.19982 11.8705C5.00114 12.3501 4.94915 12.8779 5.05044 13.3871C5.15173 13.8963 5.40173 14.364 5.76885 14.7312C6.13596 15.0983 6.60369 15.3483 7.11289 15.4496C7.62209 15.5508 8.14989 15.4989 8.62955 15.3002C9.1092 15.1015 9.51917 14.7651 9.80761 14.3334C10.096 13.9017 10.25 13.3942 10.25 12.875C10.25 12.1788 9.97344 11.5111 9.48116 11.0188C8.98887 10.5266 8.32119 10.25 7.625 10.25Z" fill="#323F4B"/>
<path d="M19.25 11H13.25C12.8522 11 12.4706 11.158 12.1893 11.4393C11.908 11.7206 11.75 12.1021 11.75 12.5V17H3.5V8.44995L12.5 3.60495L21.8975 8.65995L22.6025 7.33995L12.8525 2.08995C12.744 2.03217 12.6229 2.00195 12.5 2.00195C12.3771 2.00195 12.256 2.03217 12.1475 2.08995L2.3975 7.33995C2.27774 7.40372 2.17752 7.49878 2.10752 7.61501C2.03752 7.73124 2.00036 7.86428 2 7.99995V23H3.5V18.5H21.5V23H23V14.75C23 13.7554 22.6049 12.8016 21.9016 12.0983C21.1984 11.395 20.2446 11 19.25 11ZM13.25 17V12.5H19.25C19.8467 12.5 20.419 12.737 20.841 13.159C21.2629 13.5809 21.5 14.1532 21.5 14.75V17H13.25Z" fill="#323F4B"/>
</svg>
