<svg width="46" height="46" viewBox="0 0 46 46" fill="none" xmlns="http://www.w3.org/2000/svg">
<path d="M36.4308 9.24803H28.9029C27.5426 9.25103 27.5935 10.655 28.9029 10.6468H36.4308V11.3645H28.9029C27.5502 11.3563 27.6 12.7596 28.9029 12.7633H36.4308V13.4968H28.9029C27.5502 13.4968 27.6 14.8993 28.9029 14.8956H36.4308V15.5946H28.9029C27.5784 15.6013 27.6 17.0053 28.9029 17.0098H36.4308V17.7103H28.9029C27.5784 17.7073 27.573 19.1091 28.9029 19.1091H36.4308V19.8081H28.9029C27.5784 19.8111 27.573 21.2144 28.9029 21.2076H36.4308V21.9239H28.9029C27.5784 21.9156 27.573 23.3174 28.9029 23.3226H36.4308V24.0201H28.9029C27.5784 24.0194 27.6 25.4241 28.9029 25.4196H36.4308V39.039C36.4352 41.1143 40.987 41.0767 41 39.039V7.16752C40.987 6.21951 39.8629 5.021 38.0131 5.01725H28.9029C27.5426 5.018 27.5935 6.42201 28.9029 6.41601L36.4308 6.43326V7.13076H28.9029C27.5448 7.12626 27.5957 8.52952 28.9029 8.53027H36.4308V9.24803ZM28.3852 33.3937C28.3809 30.9712 24.755 28.3657 20.423 30.0532V20.7876L17.6213 5.50625C17.5628 5.102 17.0679 5.00675 16.7354 5C16.3921 5.00675 15.7044 5.102 15.6296 5.50625L12.842 20.7876V30.0532C8.51 28.3657 5.00108 30.9877 5 33.3749C5.00108 35.499 7.36202 37.2435 10.5569 37.2382C13.7755 37.2435 16.091 35.2882 16.091 33.3749V23.7501H17.174V33.3749C17.174 35.517 19.5696 37.1025 22.2316 37.203C22.1872 38.3775 22.7406 40.053 23.7825 40.7175C25.0041 41.4975 26.4586 40.5 25.8618 39.6877C25.2857 38.9317 24.7203 38.484 25.1795 36.8332C27.0986 36.2182 28.3809 34.9237 28.3852 33.3937ZM10.6803 35.2995C9.95005 35.2995 9.24968 35.0986 8.7333 34.7409C8.21691 34.3833 7.92681 33.8983 7.92681 33.3926C7.92681 32.8868 8.21691 32.4018 8.7333 32.0442C9.24968 31.6866 9.95005 31.4857 10.6803 31.4857C12.1814 31.4917 13.4041 32.3444 13.4149 33.3937C13.4118 33.8964 13.1233 34.3781 12.6116 34.7347C12.0999 35.0913 11.4062 35.2941 10.6803 35.2995ZM19.9627 33.3937C19.9652 32.8905 20.2537 32.4083 20.7656 32.0512C21.2775 31.6942 21.9718 31.491 22.6984 31.4857C23.4252 31.4902 24.12 31.6932 24.632 32.0504C25.144 32.4076 25.4318 32.8904 25.433 33.3937C25.4318 33.8968 25.1439 34.3793 24.6318 34.7362C24.1197 35.0931 23.4249 35.2955 22.6984 35.2995C21.9721 35.2949 21.2776 35.0923 20.7655 34.7356C20.2534 34.3788 19.965 33.8967 19.9627 33.3937Z" fill="black"/>
</svg>
