<svg width="56" height="56" viewBox="0 0 56 56" fill="none" xmlns="http://www.w3.org/2000/svg">
<g clip-path="url(#clip0_1_3729)">
<path fill-rule="evenodd" clip-rule="evenodd" d="M38.6328 26.9179C38.0865 26.9179 37.5804 27.0704 37.1335 27.3203L33.8703 21.8292L34.6665 21.1071L31.3227 17.416L29.1903 21.2384L31.5938 23.8939L32.3519 23.2057L35.755 28.8386C35.5208 29.385 35.4449 29.9862 35.5359 30.5737C35.6268 31.1611 35.8811 31.7112 36.2695 32.1612L33.667 40.4814C32.2109 39.9791 30.6818 39.7208 29.1415 39.717C23.3815 39.717 18.4728 38.9228 16.4907 43.7744H41.7881C40.6361 40.9579 38.4804 42.8786 35.7677 41.4111L38.2877 33.2391C38.3999 33.2518 38.5079 33.2751 38.6265 33.2751C39.0712 33.2751 39.4926 33.1777 39.8759 33.0083C40.5175 32.7245 41.0364 32.2247 41.3667 31.6064C41.6103 31.1574 41.7606 30.6492 41.7606 30.1007C41.7648 29.6862 41.6872 29.2749 41.5321 28.8905C41.3771 28.506 41.1477 28.1559 40.8572 27.8603C40.5666 27.5646 40.2206 27.3292 39.8389 27.1675C39.4572 27.0057 39.0474 26.9209 38.6328 26.9179Z" fill="black"/>
<path fill-rule="evenodd" clip-rule="evenodd" d="M31.4582 14.1621L27.6739 9.97974L16.5923 14.7974L25.5732 24.7164L31.4582 14.1621Z" fill="black"/>
<path fill-rule="evenodd" clip-rule="evenodd" d="M19.4723 21.2722C21.5878 23.6101 23.4577 22.2675 23.4577 22.2675L18.8455 17.1703C18.8455 17.1703 17.3504 18.9343 19.4723 21.2722Z" fill="black"/>
</g>
<defs>
<clipPath id="clip0_1_3729">
<rect width="36" height="36" fill="white" transform="translate(10 10)"/>
</clipPath>
</defs>
</svg>
