<svg width="46" height="47" viewBox="0 0 46 47" fill="none" xmlns="http://www.w3.org/2000/svg">
<path d="M38 37C36.335 37 35.405 36.445 34.73 36.04C34.175 35.71 33.83 35.5 33.005 35.5C32.165 35.5 31.835 35.695 31.28 36.04C30.59 36.445 29.675 37 28.01 37C26.345 37 25.415 36.445 24.74 36.04C24.185 35.71 23.84 35.5 23.015 35.5C22.175 35.5 21.845 35.695 21.29 36.04C20.6 36.445 19.67 37 18.005 37C16.34 37 15.41 36.445 14.735 36.04C14.18 35.695 13.835 35.5 13.01 35.5C12.185 35.5 11.84 35.695 11.285 36.04C10.595 36.445 9.665 37 8 37V34C8.84 34 9.17 33.805 9.725 33.46C10.415 33.055 11.345 32.5 13.01 32.5C14.675 32.5 15.605 33.055 16.28 33.46C16.835 33.805 17.165 34 18.005 34C18.845 34 19.175 33.805 19.73 33.46C20.42 33.055 21.35 32.5 23.015 32.5C24.68 32.5 25.61 33.055 26.285 33.46C26.84 33.79 27.185 34 28.01 34C28.835 34 29.18 33.805 29.735 33.46C30.41 33.055 31.34 32.5 33.005 32.5C34.67 32.5 35.6 33.055 36.275 33.46C36.83 33.805 37.16 34 38 34V37ZM38 30.25C36.335 30.25 35.405 29.695 34.73 29.29C34.175 28.96 33.83 28.75 33.005 28.75C32.165 28.75 31.835 28.945 31.28 29.29C30.605 29.695 29.675 30.25 28.01 30.25C26.345 30.25 25.415 29.695 24.74 29.29C24.185 28.96 23.84 28.75 23.015 28.75C22.175 28.75 21.845 28.945 21.29 29.29C20.615 29.695 19.685 30.25 18.02 30.25C16.355 30.25 15.425 29.695 14.75 29.29C14.195 28.96 13.85 28.75 13.025 28.75C12.2 28.75 11.855 28.945 11.3 29.29C10.595 29.695 9.665 30.25 8 30.25V27.25C8.84 27.25 9.17 27.055 9.725 26.71C10.4 26.305 11.33 25.75 12.995 25.75C14.66 25.75 15.59 26.305 16.265 26.71C16.82 27.04 17.165 27.25 17.99 27.25C18.83 27.25 19.16 27.055 19.715 26.71C20.39 26.305 21.32 25.75 22.985 25.75C24.65 25.75 25.58 26.305 26.255 26.71C26.81 27.04 27.155 27.25 27.98 27.25C28.805 27.25 29.15 27.055 29.705 26.71C30.38 26.305 31.31 25.75 32.975 25.75C34.64 25.75 35.57 26.305 36.245 26.71C36.8 27.04 37.145 27.25 37.97 27.25V30.25H38ZM18.005 23.5C18.845 23.5 19.175 23.305 19.73 22.96C20.42 22.555 21.35 22 23.015 22C24.68 22 25.61 22.555 26.285 22.96C26.84 23.29 27.185 23.5 28.01 23.5C28.835 23.5 29.18 23.305 29.735 22.96C29.915 22.855 30.125 22.735 30.35 22.615L20.72 13C18.395 10.675 16.25 9.98499 12.5 9.99999V13.75C15.23 13.735 16.835 14.335 18.5 16L20 17.5L15.125 22.375C15.59 22.555 15.965 22.78 16.28 22.96C16.835 23.305 17.165 23.5 18.005 23.5Z" fill="black"/>
<path d="M29.75 17.5C31.8211 17.5 33.5 15.8211 33.5 13.75C33.5 11.6789 31.8211 10 29.75 10C27.6789 10 26 11.6789 26 13.75C26 15.8211 27.6789 17.5 29.75 17.5Z" fill="black"/>
</svg>
