<svg width="56" height="56" viewBox="0 0 56 56" fill="none" xmlns="http://www.w3.org/2000/svg">
<g clip-path="url(#clip0_1_3802)">
<path d="M16.6825 13.0375C16.8937 12.7905 17.156 12.5922 17.4512 12.4563C17.7464 12.3204 18.0675 12.25 18.3925 12.25H37.6075C37.9325 12.25 38.2536 12.3204 38.5488 12.4563C38.844 12.5922 39.1063 12.7905 39.3175 13.0375L45.1878 19.8865C45.7119 20.4981 46 21.277 46 22.0825V22.6562C46.0001 23.7699 45.6523 24.8559 45.0051 25.7622C44.3579 26.6685 43.4437 27.35 42.3903 27.7114C41.3368 28.0728 40.1968 28.096 39.1295 27.7779C38.0623 27.4597 37.1211 26.816 36.4375 25.9368C35.9383 26.5797 35.2986 27.0999 34.5674 27.4576C33.8361 27.8152 33.0328 28.0007 32.2188 28C31.4047 28.0009 30.6013 27.8154 29.87 27.4578C29.1387 27.1002 28.4991 26.5799 28 25.9368C27.5009 26.5799 26.8613 27.1002 26.13 27.4578C25.3987 27.8154 24.5953 28.0009 23.7812 28C22.9672 28.0009 22.1638 27.8154 21.4325 27.4578C20.7012 27.1002 20.0616 26.5799 19.5625 25.9368C18.8789 26.816 17.9377 27.4597 16.8705 27.7779C15.8032 28.096 14.6632 28.0728 13.6097 27.7114C12.5563 27.35 11.6421 26.6685 10.9949 25.7622C10.3477 24.8559 9.99988 23.7699 10 22.6562V22.0825C10 21.277 10.2881 20.4981 10.8123 19.8865L16.6848 13.0352L16.6825 13.0375ZM20.6875 22.6562C20.6875 23.4768 21.0134 24.2637 21.5936 24.8439C22.1738 25.4241 22.9607 25.75 23.7812 25.75C24.6018 25.75 25.3887 25.4241 25.9689 24.8439C26.5491 24.2637 26.875 23.4768 26.875 22.6562C26.875 22.3579 26.9935 22.0717 27.2045 21.8608C27.4155 21.6498 27.7016 21.5312 28 21.5312C28.2984 21.5312 28.5845 21.6498 28.7955 21.8608C29.0065 22.0717 29.125 22.3579 29.125 22.6562C29.125 23.4768 29.4509 24.2637 30.0311 24.8439C30.6113 25.4241 31.3982 25.75 32.2188 25.75C33.0393 25.75 33.8262 25.4241 34.4064 24.8439C34.9866 24.2637 35.3125 23.4768 35.3125 22.6562C35.3125 22.3579 35.431 22.0717 35.642 21.8608C35.853 21.6498 36.1391 21.5312 36.4375 21.5312C36.7359 21.5312 37.022 21.6498 37.233 21.8608C37.444 22.0717 37.5625 22.3579 37.5625 22.6562C37.5625 23.4768 37.8884 24.2637 38.4686 24.8439C39.0488 25.4241 39.8357 25.75 40.6562 25.75C41.4768 25.75 42.2637 25.4241 42.8439 24.8439C43.4241 24.2637 43.75 23.4768 43.75 22.6562V22.0825C43.75 21.8144 43.6543 21.555 43.48 21.3512L37.6075 14.5H18.3925L12.52 21.3512C12.3457 21.555 12.25 21.8144 12.25 22.0825V22.6562C12.25 23.4768 12.5759 24.2637 13.1561 24.8439C13.7363 25.4241 14.5232 25.75 15.3438 25.75C16.1643 25.75 16.9512 25.4241 17.5314 24.8439C18.1116 24.2637 18.4375 23.4768 18.4375 22.6562C18.4375 22.3579 18.556 22.0717 18.767 21.8608C18.978 21.6498 19.2641 21.5312 19.5625 21.5312C19.8609 21.5312 20.147 21.6498 20.358 21.8608C20.569 22.0717 20.6875 22.3579 20.6875 22.6562ZM13.375 29.125C13.6734 29.125 13.9595 29.2435 14.1705 29.4545C14.3815 29.6655 14.5 29.9516 14.5 30.25V43.75H41.5V30.25C41.5 29.9516 41.6185 29.6655 41.8295 29.4545C42.0405 29.2435 42.3266 29.125 42.625 29.125C42.9234 29.125 43.2095 29.2435 43.4205 29.4545C43.6315 29.6655 43.75 29.9516 43.75 30.25V43.75H44.875C45.1734 43.75 45.4595 43.8685 45.6705 44.0795C45.8815 44.2905 46 44.5766 46 44.875C46 45.1734 45.8815 45.4595 45.6705 45.6705C45.4595 45.8815 45.1734 46 44.875 46H11.125C10.8266 46 10.5405 45.8815 10.3295 45.6705C10.1185 45.4595 10 45.1734 10 44.875C10 44.5766 10.1185 44.2905 10.3295 44.0795C10.5405 43.8685 10.8266 43.75 11.125 43.75H12.25V30.25C12.25 29.9516 12.3685 29.6655 12.5795 29.4545C12.7905 29.2435 13.0766 29.125 13.375 29.125ZM17.875 30.25C18.1734 30.25 18.4595 30.3685 18.6705 30.5795C18.8815 30.7905 19 31.0766 19 31.375V39.25H37V31.375C37 31.0766 37.1185 30.7905 37.3295 30.5795C37.5405 30.3685 37.8266 30.25 38.125 30.25C38.4234 30.25 38.7095 30.3685 38.9205 30.5795C39.1315 30.7905 39.25 31.0766 39.25 31.375V39.25C39.25 39.8467 39.0129 40.419 38.591 40.841C38.169 41.2629 37.5967 41.5 37 41.5H19C18.4033 41.5 17.831 41.2629 17.409 40.841C16.9871 40.419 16.75 39.8467 16.75 39.25V31.375C16.75 31.0766 16.8685 30.7905 17.0795 30.5795C17.2905 30.3685 17.5766 30.25 17.875 30.25Z" fill="black"/>
</g>
<defs>
<clipPath id="clip0_1_3802">
<rect width="36" height="36" fill="white" transform="translate(10 10)"/>
</clipPath>
</defs>
</svg>
